<svg xmlns="http://www.w3.org/2000/svg" xmlns:xlink="http://www.w3.org/1999/xlink" width="500" zoomAndPan="magnify" viewBox="0 0 375 374.999991" height="500" preserveAspectRatio="xMidYMid meet" version="1.0"><defs><clipPath id="9bb93730fb"><path d="M 0 0 L 187.5 0 L 187.5 187.5 L 0 187.5 Z M 0 0 " clip-rule="nonzero"/></clipPath><clipPath id="28ff1d9fae"><path d="M 93.75 0 L 0 93.75 L 46.875 93.75 L 46.875 187.5 L 140.625 187.5 L 140.625 93.75 L 187.5 93.75 Z M 93.75 0 " clip-rule="nonzero"/></clipPath><clipPath id="0957fa4ca9"><path d="M 187.5 187.5 L 375 187.5 L 375 375 L 187.5 375 Z M 187.5 187.5 " clip-rule="nonzero"/></clipPath><clipPath id="88d422b001"><path d="M 281.25 375 L 187.5 281.25 L 234.375 281.25 L 234.375 187.5 L 328.125 187.5 L 328.125 281.25 L 375 281.25 Z M 281.25 375 " clip-rule="nonzero"/></clipPath></defs><g clip-path="url(#9bb93730fb)"><g clip-path="url(#28ff1d9fae)"><path fill="#f0d6ff" d="M 0 0 L 187.5 0 L 187.5 187.5 L 0 187.5 Z M 0 0 " fill-opacity="1" fill-rule="nonzero"/></g></g><g clip-path="url(#0957fa4ca9)"><g clip-path="url(#88d422b001)"><path fill="#f0d6ff" d="M 187.5 187.5 L 375 187.5 L 375 375 L 187.5 375 Z M 187.5 187.5 " fill-opacity="1" fill-rule="nonzero"/></g></g></svg>